<mxfile host="app.diagrams.net" modified="2023-07-02T03:52:58.208Z" agent="Mozilla/5.0 (Windows NT 10.0; Win64; x64) AppleWebKit/537.36 (KHTML, like Gecko) Chrome/114.0.0.0 Safari/537.36" etag="wWD7hQvtivXVnIdRQBTj" version="21.5.1" type="device">
  <diagram name="PÃ¡gina-1" id="onIAqQAC2jyTeVQISdED">
    <mxGraphModel dx="1290" dy="541" grid="1" gridSize="10" guides="1" tooltips="1" connect="1" arrows="1" fold="1" page="1" pageScale="1" pageWidth="827" pageHeight="1169" math="0" shadow="0">
      <root>
        <mxCell id="0" />
        <mxCell id="1" parent="0" />
        <mxCell id="T39FK7ZS_7aOJ3rDfaGP-4" value="HEADER" style="rounded=0;whiteSpace=wrap;html=1;" parent="1" vertex="1">
          <mxGeometry x="100" y="70" width="600" height="60" as="geometry" />
        </mxCell>
        <mxCell id="T39FK7ZS_7aOJ3rDfaGP-5" value="FOOTER" style="rounded=0;whiteSpace=wrap;html=1;" parent="1" vertex="1">
          <mxGeometry x="100" y="520" width="600" height="50" as="geometry" />
        </mxCell>
        <mxCell id="zDEYlAyYQUcAz11cxKv9-1" value="" style="rounded=0;whiteSpace=wrap;html=1;" parent="1" vertex="1">
          <mxGeometry x="100" y="70" width="80" height="60" as="geometry" />
        </mxCell>
        <mxCell id="zDEYlAyYQUcAz11cxKv9-3" value="" style="whiteSpace=wrap;html=1;" parent="1" vertex="1">
          <mxGeometry x="580" y="70" width="120" height="60" as="geometry" />
        </mxCell>
        <mxCell id="zDEYlAyYQUcAz11cxKv9-6" value="JUMBOTRON" style="rounded=0;whiteSpace=wrap;html=1;" parent="1" vertex="1">
          <mxGeometry x="100" y="130" width="600" height="180" as="geometry" />
        </mxCell>
        <mxCell id="zDEYlAyYQUcAz11cxKv9-11" value="BLOG" style="rounded=0;whiteSpace=wrap;html=1;" parent="1" vertex="1">
          <mxGeometry x="100" y="300" width="600" height="220" as="geometry" />
        </mxCell>
        <mxCell id="zDEYlAyYQUcAz11cxKv9-12" value="HEADER" style="rounded=0;whiteSpace=wrap;html=1;" parent="1" vertex="1">
          <mxGeometry x="100" y="700" width="600" height="60" as="geometry" />
        </mxCell>
        <mxCell id="zDEYlAyYQUcAz11cxKv9-13" value="FOOTER" style="rounded=0;whiteSpace=wrap;html=1;" parent="1" vertex="1">
          <mxGeometry x="100" y="940" width="600" height="50" as="geometry" />
        </mxCell>
        <mxCell id="zDEYlAyYQUcAz11cxKv9-14" value="" style="rounded=0;whiteSpace=wrap;html=1;" parent="1" vertex="1">
          <mxGeometry x="100" y="700" width="100" height="60" as="geometry" />
        </mxCell>
        <mxCell id="zDEYlAyYQUcAz11cxKv9-15" value="" style="whiteSpace=wrap;html=1;" parent="1" vertex="1">
          <mxGeometry x="600" y="700" width="100" height="60" as="geometry" />
        </mxCell>
        <mxCell id="zDEYlAyYQUcAz11cxKv9-16" value="MAIN" style="rounded=0;whiteSpace=wrap;html=1;" parent="1" vertex="1">
          <mxGeometry x="100" y="760" width="600" height="180" as="geometry" />
        </mxCell>
        <mxCell id="zDEYlAyYQUcAz11cxKv9-20" value="&lt;font style=&quot;font-size: 36px;&quot;&gt;CONTACTENOS&lt;/font&gt;" style="text;html=1;strokeColor=none;fillColor=none;align=center;verticalAlign=middle;whiteSpace=wrap;rounded=0;" parent="1" vertex="1">
          <mxGeometry x="390" y="650" width="30" height="30" as="geometry" />
        </mxCell>
        <mxCell id="zDEYlAyYQUcAz11cxKv9-21" value="&lt;font style=&quot;font-size: 36px;&quot;&gt;Bienvenido&lt;br&gt;&lt;/font&gt;" style="text;html=1;strokeColor=none;fillColor=none;align=center;verticalAlign=middle;whiteSpace=wrap;rounded=0;" parent="1" vertex="1">
          <mxGeometry x="402" y="20" width="24" height="30" as="geometry" />
        </mxCell>
        <mxCell id="zDEYlAyYQUcAz11cxKv9-22" value="" style="rounded=0;whiteSpace=wrap;html=1;" parent="1" vertex="1">
          <mxGeometry x="100" y="760" width="280" height="180" as="geometry" />
        </mxCell>
        <mxCell id="zDEYlAyYQUcAz11cxKv9-23" value="" style="rounded=0;whiteSpace=wrap;html=1;" parent="1" vertex="1">
          <mxGeometry x="420" y="760" width="280" height="180" as="geometry" />
        </mxCell>
        <mxCell id="1721awUVWxnckEXnw3Zo-1" value="" style="whiteSpace=wrap;html=1;aspect=fixed;" vertex="1" parent="1">
          <mxGeometry x="185" y="335" width="150" height="150" as="geometry" />
        </mxCell>
        <mxCell id="1721awUVWxnckEXnw3Zo-2" value="" style="whiteSpace=wrap;html=1;aspect=fixed;" vertex="1" parent="1">
          <mxGeometry x="475" y="335" width="150" height="150" as="geometry" />
        </mxCell>
      </root>
    </mxGraphModel>
  </diagram>
</mxfile>
